<svg xmlns="http://www.w3.org/2000/svg" viewBox="0 0 900 420" role="img" aria-label="Grocery checklist with meal-prep staples">
  <defs>
    <linearGradient id="bg" x1="0" y1="0" x2="900" y2="420" gradientUnits="userSpaceOnUse">
      <stop stop-color="#0f172a"/>
      <stop offset="0.58" stop-color="#111827"/>
      <stop offset="1" stop-color="#064e3b"/>
    </linearGradient>
  </defs>
  <rect width="900" height="420" rx="36" fill="url(#bg)"/>
  <circle cx="742" cy="90" r="72" fill="#f59e0b" opacity="0.12"/>
  <circle cx="152" cy="340" r="82" fill="#10b981" opacity="0.12"/>
  <g transform="translate(178 66)">
    <rect x="0" y="0" width="544" height="286" rx="34" fill="#020617" opacity="0.62" stroke="#334155" stroke-width="3"/>
    <rect x="48" y="40" width="448" height="46" rx="18" fill="#0f172a"/>
    <path d="M78 63l16 16 34-38" fill="none" stroke="#34d399" stroke-width="10" stroke-linecap="round" stroke-linejoin="round"/>
    <path d="M156 63h244" stroke="#e2e8f0" stroke-width="12" stroke-linecap="round"/>
    <rect x="48" y="116" width="448" height="46" rx="18" fill="#0f172a"/>
    <path d="M78 139l16 16 34-38" fill="none" stroke="#f59e0b" stroke-width="10" stroke-linecap="round" stroke-linejoin="round"/>
    <path d="M156 139h188" stroke="#cbd5e1" stroke-width="12" stroke-linecap="round"/>
    <rect x="48" y="192" width="448" height="46" rx="18" fill="#0f172a"/>
    <path d="M78 215l16 16 34-38" fill="none" stroke="#60a5fa" stroke-width="10" stroke-linecap="round" stroke-linejoin="round"/>
    <path d="M156 215h226" stroke="#cbd5e1" stroke-width="12" stroke-linecap="round"/>
  </g>
  <g transform="translate(626 254)">
    <rect x="0" y="0" width="92" height="92" rx="26" fill="#ecfdf5"/>
    <path d="M26 54h40" stroke="#064e3b" stroke-width="12" stroke-linecap="round"/>
    <circle cx="46" cy="34" r="12" fill="#10b981"/>
  </g>
</svg>
