<svg xmlns="http://www.w3.org/2000/svg" viewBox="0 0 900 420" role="img" aria-label="Meal prep bowls and protein ingredients">
  <defs>
    <linearGradient id="bg" x1="0" y1="0" x2="900" y2="420" gradientUnits="userSpaceOnUse">
      <stop stop-color="#172033"/>
      <stop offset="1" stop-color="#082f24"/>
    </linearGradient>
    <linearGradient id="bowl" x1="192" y1="146" x2="658" y2="372" gradientUnits="userSpaceOnUse">
      <stop stop-color="#fbbf24"/>
      <stop offset="0.45" stop-color="#34d399"/>
      <stop offset="1" stop-color="#60a5fa"/>
    </linearGradient>
  </defs>
  <rect width="900" height="420" rx="36" fill="url(#bg)"/>
  <circle cx="742" cy="104" r="74" fill="#10b981" opacity="0.12"/>
  <circle cx="118" cy="324" r="88" fill="#f59e0b" opacity="0.12"/>
  <g transform="translate(124 106)">
    <rect x="0" y="178" width="652" height="34" rx="17" fill="#020617" opacity="0.5"/>
    <ellipse cx="326" cy="172" rx="250" ry="90" fill="#e2e8f0"/>
    <ellipse cx="326" cy="156" rx="210" ry="62" fill="#0f172a"/>
    <path d="M126 154c64-30 120-18 166 2 50 22 96 22 156 0 56-20 108-28 178 0-46 64-112 94-250 94-132 0-208-32-250-96Z" fill="url(#bowl)"/>
    <circle cx="250" cy="144" r="28" fill="#f97316"/>
    <circle cx="314" cy="138" r="24" fill="#84cc16"/>
    <circle cx="384" cy="146" r="27" fill="#f8fafc"/>
    <circle cx="450" cy="136" r="23" fill="#22c55e"/>
    <path d="M188 114c84-42 176-50 276-22" fill="none" stroke="#fde68a" stroke-width="18" stroke-linecap="round" opacity="0.78"/>
  </g>
  <g transform="translate(642 238)">
    <rect x="0" y="0" width="92" height="118" rx="22" fill="#e2e8f0"/>
    <rect x="16" y="18" width="60" height="50" rx="14" fill="#34d399"/>
    <path d="M24 92h44" stroke="#0f172a" stroke-width="10" stroke-linecap="round"/>
  </g>
  <g transform="translate(170 58)" opacity="0.86">
    <rect x="0" y="0" width="126" height="58" rx="18" fill="#0f172a" stroke="#475569" stroke-width="3"/>
    <path d="M24 30h78" stroke="#34d399" stroke-width="10" stroke-linecap="round"/>
  </g>
</svg>
