<svg xmlns="http://www.w3.org/2000/svg" viewBox="0 0 1200 420" role="img" aria-label="Night training gym scene">
  <defs>
    <linearGradient id="sky" x1="0" y1="0" x2="1200" y2="420" gradientUnits="userSpaceOnUse">
      <stop stop-color="#0f172a"/>
      <stop offset="0.55" stop-color="#111827"/>
      <stop offset="1" stop-color="#064e3b"/>
    </linearGradient>
    <linearGradient id="floor" x1="0" y1="268" x2="1200" y2="420" gradientUnits="userSpaceOnUse">
      <stop stop-color="#1e293b"/>
      <stop offset="1" stop-color="#020617"/>
    </linearGradient>
    <linearGradient id="accent" x1="212" y1="124" x2="924" y2="332" gradientUnits="userSpaceOnUse">
      <stop stop-color="#34d399"/>
      <stop offset="0.52" stop-color="#f59e0b"/>
      <stop offset="1" stop-color="#60a5fa"/>
    </linearGradient>
    <filter id="softGlow" x="-20%" y="-20%" width="140%" height="140%">
      <feGaussianBlur stdDeviation="14" result="blur"/>
      <feColorMatrix in="blur" type="matrix" values="0 0 0 0 0.063 0 0 0 0 0.725 0 0 0 0 0.506 0 0 0 .45 0"/>
      <feBlend in="SourceGraphic"/>
    </filter>
  </defs>
  <rect width="1200" height="420" fill="url(#sky)"/>
  <rect y="278" width="1200" height="142" fill="url(#floor)"/>
  <g opacity="0.35">
    <rect x="92" y="56" width="54" height="222" rx="10" fill="#334155"/>
    <rect x="176" y="100" width="74" height="178" rx="10" fill="#475569"/>
    <rect x="286" y="76" width="58" height="202" rx="10" fill="#334155"/>
    <rect x="926" y="70" width="70" height="208" rx="10" fill="#334155"/>
    <rect x="1024" y="112" width="84" height="166" rx="10" fill="#475569"/>
  </g>
  <g fill="#f8fafc" opacity="0.75">
    <circle cx="844" cy="78" r="4"/>
    <circle cx="888" cy="116" r="3"/>
    <circle cx="1058" cy="66" r="4"/>
    <circle cx="186" cy="58" r="3"/>
    <circle cx="452" cy="92" r="3"/>
  </g>
  <g filter="url(#softGlow)">
    <path d="M278 254c62-96 138-142 228-138 97 4 148 68 236 70 70 2 126-34 180-84" fill="none" stroke="url(#accent)" stroke-width="18" stroke-linecap="round" opacity="0.8"/>
    <path d="M312 312h578" stroke="#34d399" stroke-width="14" stroke-linecap="round" opacity="0.9"/>
  </g>
  <g transform="translate(270 190)">
    <rect x="0" y="78" width="324" height="26" rx="13" fill="#64748b"/>
    <rect x="36" y="104" width="38" height="78" rx="8" fill="#334155"/>
    <rect x="246" y="104" width="38" height="78" rx="8" fill="#334155"/>
    <circle cx="88" cy="188" r="22" fill="#020617" stroke="#94a3b8" stroke-width="8"/>
    <circle cx="236" cy="188" r="22" fill="#020617" stroke="#94a3b8" stroke-width="8"/>
    <path d="M82 76h164l32-42" fill="none" stroke="#e2e8f0" stroke-width="18" stroke-linecap="round" stroke-linejoin="round"/>
  </g>
  <g transform="translate(650 178)">
    <rect x="10" y="56" width="310" height="40" rx="20" fill="#0f172a" stroke="#34d399" stroke-width="6"/>
    <rect x="54" y="22" width="44" height="110" rx="16" fill="#10b981"/>
    <rect x="228" y="22" width="44" height="110" rx="16" fill="#60a5fa"/>
    <rect x="0" y="44" width="38" height="64" rx="14" fill="#f59e0b"/>
    <rect x="292" y="44" width="38" height="64" rx="14" fill="#f59e0b"/>
  </g>
  <g opacity="0.45" stroke="#94a3b8" stroke-width="2">
    <path d="M0 342h1200"/>
    <path d="M60 420 286 278"/>
    <path d="M266 420 432 278"/>
    <path d="M520 420 604 278"/>
    <path d="M820 420 760 278"/>
    <path d="M1114 420 910 278"/>
  </g>
</svg>
