<svg xmlns="http://www.w3.org/2000/svg" viewBox="0 0 900 420" role="img" aria-label="Workout rotation with strength training equipment">
  <defs>
    <linearGradient id="bg" x1="0" y1="0" x2="900" y2="420" gradientUnits="userSpaceOnUse">
      <stop stop-color="#111827"/>
      <stop offset="0.55" stop-color="#0f172a"/>
      <stop offset="1" stop-color="#064e3b"/>
    </linearGradient>
    <linearGradient id="ring" x1="184" y1="88" x2="702" y2="332" gradientUnits="userSpaceOnUse">
      <stop stop-color="#34d399"/>
      <stop offset="0.5" stop-color="#f59e0b"/>
      <stop offset="1" stop-color="#60a5fa"/>
    </linearGradient>
  </defs>
  <rect width="900" height="420" rx="36" fill="url(#bg)"/>
  <circle cx="742" cy="86" r="64" fill="#60a5fa" opacity="0.12"/>
  <circle cx="136" cy="326" r="88" fill="#10b981" opacity="0.11"/>
  <g transform="translate(156 62)">
    <circle cx="294" cy="148" r="126" fill="none" stroke="#1e293b" stroke-width="34"/>
    <path d="M184 210a126 126 0 0 1 34-162" fill="none" stroke="#34d399" stroke-width="34" stroke-linecap="round"/>
    <path d="M252 30a126 126 0 0 1 142 20" fill="none" stroke="#f59e0b" stroke-width="34" stroke-linecap="round"/>
    <path d="M428 88a126 126 0 0 1 2 126" fill="none" stroke="#60a5fa" stroke-width="34" stroke-linecap="round"/>
    <path d="M378 252a126 126 0 0 1-132 16" fill="none" stroke="#34d399" stroke-width="34" stroke-linecap="round" opacity="0.86"/>
    <g transform="translate(176 126)">
      <rect x="0" y="28" width="236" height="30" rx="15" fill="url(#ring)"/>
      <rect x="28" y="0" width="42" height="86" rx="16" fill="#e2e8f0"/>
      <rect x="166" y="0" width="42" height="86" rx="16" fill="#e2e8f0"/>
      <rect x="-16" y="16" width="34" height="54" rx="12" fill="#f59e0b"/>
      <rect x="218" y="16" width="34" height="54" rx="12" fill="#60a5fa"/>
    </g>
  </g>
  <g transform="translate(164 326)">
    <rect x="0" y="0" width="140" height="48" rx="16" fill="#052e2b"/>
    <path d="M24 25h88" stroke="#34d399" stroke-width="10" stroke-linecap="round"/>
  </g>
  <g transform="translate(380 326)">
    <rect x="0" y="0" width="140" height="48" rx="16" fill="#451a03"/>
    <path d="M24 25h74" stroke="#f59e0b" stroke-width="10" stroke-linecap="round"/>
  </g>
  <g transform="translate(596 326)">
    <rect x="0" y="0" width="140" height="48" rx="16" fill="#172554"/>
    <path d="M24 25h86" stroke="#60a5fa" stroke-width="10" stroke-linecap="round"/>
  </g>
</svg>
