<svg xmlns="http://www.w3.org/2000/svg" viewBox="0 0 512 512" width="512" height="512" role="img" aria-label="V-Fit Planner icon">
  <defs>
    <linearGradient id="bg" x1="72" y1="40" x2="440" y2="472" gradientUnits="userSpaceOnUse">
      <stop stop-color="#111827"/>
      <stop offset="0.55" stop-color="#0f172a"/>
      <stop offset="1" stop-color="#022c22"/>
    </linearGradient>
    <linearGradient id="bar" x1="104" y1="166" x2="408" y2="346" gradientUnits="userSpaceOnUse">
      <stop stop-color="#34d399"/>
      <stop offset="0.5" stop-color="#f59e0b"/>
      <stop offset="1" stop-color="#60a5fa"/>
    </linearGradient>
    <filter id="glow" x="-25%" y="-25%" width="150%" height="150%">
      <feGaussianBlur stdDeviation="10" result="blur"/>
      <feColorMatrix in="blur" type="matrix" values="0 0 0 0 0.062 0 0 0 0 0.725 0 0 0 0 0.506 0 0 0 .55 0"/>
      <feBlend in="SourceGraphic"/>
    </filter>
  </defs>
  <rect width="512" height="512" rx="112" fill="url(#bg)"/>
  <circle cx="392" cy="114" r="46" fill="#10b981" opacity="0.18"/>
  <circle cx="120" cy="396" r="66" fill="#f59e0b" opacity="0.14"/>
  <path d="M119 310 211 154h50l-116 204h-52L22 154h54l43 156Z" transform="translate(120 0)" fill="#ecfdf5"/>
  <g filter="url(#glow)" fill="url(#bar)">
    <rect x="104" y="238" width="304" height="38" rx="19"/>
    <rect x="76" y="206" width="48" height="102" rx="18"/>
    <rect x="388" y="206" width="48" height="102" rx="18"/>
    <rect x="58" y="226" width="26" height="62" rx="10"/>
    <rect x="428" y="226" width="26" height="62" rx="10"/>
  </g>
  <path d="M170 354h172" stroke="#34d399" stroke-width="18" stroke-linecap="round" opacity="0.92"/>
  <path d="M208 390h96" stroke="#fbbf24" stroke-width="14" stroke-linecap="round" opacity="0.86"/>
</svg>
